<svg width="323pt" height="476pt"
 viewBox="0.00 0.00 322.50 476.00" xmlns="http://www.w3.org/2000/svg" xmlns:xlink="http://www.w3.org/1999/xlink">
<g id="graph0" class="graph" transform="scale(1 1) rotate(0) translate(4 472)">
<title>SyncStates</title>
<!-- device -->
<g id="node1" class="node">
<title>device</title>
<path fill="none" stroke="black" d="M123,-468C123,-468 36,-468 36,-468 30,-468 24,-462 24,-456 24,-456 24,-432 24,-432 24,-426 30,-420 36,-420 36,-420 123,-420 123,-420 129,-420 135,-426 135,-432 135,-432 135,-456 135,-456 135,-462 129,-468 123,-468"/>
<text text-anchor="middle" x="79.5" y="-447.6" font-family="Helvetica,Arial,sans-serif" font-size="13.00">Recorded</text>
<text text-anchor="middle" x="79.5" y="-433.6" font-family="Helvetica,Arial,sans-serif" font-size="13.00">on this device</text>
</g>
<!-- waiting -->
<g id="node2" class="node">
<title>waiting</title>
<path fill="none" stroke="black" d="M104,-375C104,-375 55,-375 55,-375 49,-375 43,-369 43,-363 43,-363 43,-339 43,-339 43,-333 49,-327 55,-327 55,-327 104,-327 104,-327 110,-327 116,-333 116,-339 116,-339 116,-363 116,-363 116,-369 110,-375 104,-375"/>
<text text-anchor="middle" x="79.5" y="-354.6" font-family="Helvetica,Arial,sans-serif" font-size="13.00">Waiting</text>
<text text-anchor="middle" x="79.5" y="-340.6" font-family="Helvetica,Arial,sans-serif" font-size="13.00">to sync</text>
</g>
<!-- device&#45;&gt;waiting -->
<g id="edge1" class="edge">
<title>device&#45;&gt;waiting</title>
<path fill="none" stroke="black" d="M79.5,-419.57C79.5,-409.08 79.5,-396.54 79.5,-385.12"/>
<polygon fill="black" stroke="black" points="83,-385.04 79.5,-375.04 76,-385.04 83,-385.04"/>
</g>
<!-- stored -->
<g id="node3" class="node good">
<title>stored</title>
<path fill="none" stroke="black" d="M112,-271C112,-271 47,-271 47,-271 41,-271 35,-265 35,-259 35,-259 35,-235 35,-235 35,-229 41,-223 47,-223 47,-223 112,-223 112,-223 118,-223 124,-229 124,-235 124,-235 124,-259 124,-259 124,-265 118,-271 112,-271"/>
<text text-anchor="middle" x="79.5" y="-250.6" font-family="Helvetica,Arial,sans-serif" font-size="13.00">Stored on</text>
<text text-anchor="middle" x="79.5" y="-236.6" font-family="Helvetica,Arial,sans-serif" font-size="13.00">the server</text>
</g>
<!-- waiting&#45;&gt;stored -->
<g id="edge2" class="edge">
<title>waiting&#45;&gt;stored</title>
<path fill="none" stroke="black" d="M79.5,-326.85C79.5,-313.42 79.5,-296.27 79.5,-281.4"/>
<polygon fill="black" stroke="black" points="83,-281.05 79.5,-271.05 76,-281.05 83,-281.05"/>
<text text-anchor="middle" x="121" y="-296.2" font-family="Helvetica,Arial,sans-serif" font-size="11.00">the ordinary case</text>
</g>
<!-- refused -->
<g id="node4" class="node bad">
<title>refused</title>
<path fill="none" stroke="black" d="M137.5,-155C137.5,-155 21.5,-155 21.5,-155 15.5,-155 9.5,-149 9.5,-143 9.5,-143 9.5,-119 9.5,-119 9.5,-113 15.5,-107 21.5,-107 21.5,-107 137.5,-107 137.5,-107 143.5,-107 149.5,-113 149.5,-119 149.5,-119 149.5,-143 149.5,-143 149.5,-149 143.5,-155 137.5,-155"/>
<text text-anchor="middle" x="79.5" y="-134.6" font-family="Helvetica,Arial,sans-serif" font-size="13.00">Refused —</text>
<text text-anchor="middle" x="79.5" y="-120.6" font-family="Helvetica,Arial,sans-serif" font-size="13.00">held on this device</text>
</g>
<!-- waiting&#45;&gt;refused -->
<g id="edge5" class="edge">
<title>waiting&#45;&gt;refused</title>
<path fill="none" stroke="black" d="M116.2,-342.45C143.21,-334.64 174.32,-319.71 168.5,-293 157.79,-243.79 126.51,-194.13 104.06,-163.23"/>
<polygon fill="black" stroke="black" points="106.75,-160.98 97.99,-155.03 101.13,-165.15 106.75,-160.98"/>
<text text-anchor="middle" x="196" y="-250.2" font-family="Helvetica,Arial,sans-serif" font-size="11.00">the server</text>
<text text-anchor="middle" x="196" y="-238.2" font-family="Helvetica,Arial,sans-serif" font-size="11.00">won&#39;t accept it</text>
</g>
<!-- held -->
<g id="node5" class="node wait">
<title>held</title>
<path fill="none" stroke="black" d="M147,-62C147,-62 12,-62 12,-62 6,-62 0,-56 0,-50 0,-50 0,-12 0,-12 0,-6 6,0 12,0 12,0 147,0 147,0 153,0 159,-6 159,-12 159,-12 159,-50 159,-50 159,-56 153,-62 147,-62"/>
<text text-anchor="middle" x="79.5" y="-41.6" font-family="Helvetica,Arial,sans-serif" font-size="13.00">Held back —</text>
<text text-anchor="middle" x="79.5" y="-27.6" font-family="Helvetica,Arial,sans-serif" font-size="13.00">offline, unreadable, or</text>
<text text-anchor="middle" x="79.5" y="-13.6" font-family="Helvetica,Arial,sans-serif" font-size="13.00">you&#39;re off the project</text>
</g>
<!-- waiting&#45;&gt;held -->
<g id="edge6" class="edge">
<title>waiting&#45;&gt;held</title>
<path fill="none" stroke="black" d="M116.06,-344.06C154.68,-335.53 213.16,-315.61 236.5,-271 275.96,-195.59 192.16,-114 132.49,-68.32"/>
<polygon fill="black" stroke="black" points="134.34,-65.33 124.25,-62.12 130.14,-70.93 134.34,-65.33"/>
<text text-anchor="middle" x="278" y="-192.2" font-family="Helvetica,Arial,sans-serif" font-size="11.00">something else</text>
<text text-anchor="middle" x="278" y="-180.2" font-family="Helvetica,Arial,sans-serif" font-size="11.00">is stopping it</text>
</g>
<!-- stored&#45;&gt;refused -->
<!-- refused&#45;&gt;held -->
</g>
</svg>
